<?xml version="1.0" encoding="utf-8"?>
<!-- Generator: Adobe Illustrator 16.0.0, SVG Export Plug-In . SVG Version: 6.00 Build 0)  -->
<!DOCTYPE svg PUBLIC "-//W3C//DTD SVG 1.1//EN" "http://www.w3.org/Graphics/SVG/1.1/DTD/svg11.dtd">
<svg version="1.1" id="Layer_1" xmlns="http://www.w3.org/2000/svg" xmlns:xlink="http://www.w3.org/1999/xlink" x="0px" y="0px"
	 width="48.682px" height="48.681px" viewBox="0 0 48.682 48.681" enable-background="new 0 0 48.682 48.681" xml:space="preserve">
<g>
	<g>
		<path fill="#F1602C" d="M24.34,48.437c13.31,0,24.099-10.788,24.099-24.097S37.649,0.243,24.34,0.243
			c-13.308,0-24.096,10.789-24.096,24.096C0.243,37.649,11.032,48.437,24.34,48.437"/>
	</g>
	<g>
		<path fill="#FFFFFF" d="M35.409,14.822H13.272c-1.221,0-2.214,0.993-2.214,2.213v14.611c0,0.494,0.17,0.948,0.445,1.317
			c-0.003,0.116,0.039,0.235,0.127,0.323c0.087,0.088,0.2,0.131,0.313,0.131c0.004,0,0.008-0.002,0.01-0.002
			c0.37,0.275,0.823,0.443,1.318,0.443h22.137c1.221,0,2.213-0.992,2.213-2.213V17.034C37.622,15.815,36.63,14.822,35.409,14.822
			 M28.731,24.338l7.873-7.873c0.082,0.174,0.132,0.366,0.132,0.569v14.611c0,0.086-0.009,0.171-0.024,0.253L28.731,24.338z
			 M35.409,15.707c0.205,0,0.396,0.049,0.57,0.132l-9.166,9.165h-4.947l-9.164-9.165c0.173-0.083,0.364-0.132,0.569-0.132H35.409z
			 M11.944,17.034c0-0.204,0.05-0.395,0.133-0.569l7.875,7.875l-7.875,7.874c-0.083-0.172-0.133-0.363-0.133-0.568V17.034z
			 M13.272,32.975c-0.205,0-0.396-0.053-0.569-0.136l7.875-7.872l0.924,0.924h5.679l0.926-0.928l8.136,7.708
			c-0.228,0.187-0.517,0.304-0.833,0.304H13.272z"/>
	</g>
</g>
</svg>
