<?xml version="1.0" encoding="utf-8"?>
<!-- Generator: Adobe Illustrator 16.0.0, SVG Export Plug-In . SVG Version: 6.00 Build 0)  -->
<!DOCTYPE svg PUBLIC "-//W3C//DTD SVG 1.1//EN" "http://www.w3.org/Graphics/SVG/1.1/DTD/svg11.dtd">
<svg version="1.1" id="Layer_1" xmlns="http://www.w3.org/2000/svg" xmlns:xlink="http://www.w3.org/1999/xlink" x="0px" y="0px"
	 width="48.68px" height="48.68px" viewBox="-96.194 34.928 48.68 48.68" enable-background="new -96.194 34.928 48.68 48.68"
	 xml:space="preserve">
<g>
	<g>
		<path fill="#F1602C" d="M-71.854,83.364c13.309,0,24.097-10.787,24.097-24.096s-10.788-24.097-24.097-24.097
			c-13.309,0-24.096,10.788-24.096,24.097S-85.162,83.364-71.854,83.364"/>
	</g>
	<g>
		<path fill="#FFFFFF" d="M-65.825,72.36L-65.825,72.36c-2.41,0-7.28-0.803-12.831-6.172c-3.318-3.213-5.389-6.666-6.155-10.26
			c-0.565-2.652-0.222-4.551-0.069-5.186c-0.044-0.439,0.056-0.88,0.297-1.305c0.441-0.802,1.509-2.135,2.155-2.688
			c1.002-0.863,1.927-0.751,2.723,0.332l4.21,5.742c0.558,0.771,0.415,1.848-0.319,2.4l-2.105,1.596
			c-0.089,0.068-0.19,0.128-0.302,0.174c-0.298,1.289,0.896,3.252,3.636,5.986c2.158,2.157,3.647,2.611,4.517,2.611
			c0.256,0,0.443-0.042,0.565-0.08c0.044-0.134,0.107-0.258,0.187-0.369l1.525-2.158c0.314-0.44,0.834-0.7,1.387-0.7
			c0.355,0,0.7,0.104,0.996,0.308l5.877,4.021c0.558,0.382,0.865,0.795,0.931,1.261c0.069,0.464-0.099,0.937-0.51,1.448
			c-0.53,0.664-1.826,1.777-2.614,2.244c-0.406,0.242-0.826,0.354-1.239,0.34C-63.41,72.098-64.4,72.36-65.825,72.36
			 M-81.151,47.091c-0.188,0-0.419,0.117-0.687,0.348c-0.562,0.48-1.565,1.736-1.954,2.44c-0.159,0.281-0.219,0.56-0.18,0.827
			l0.015,0.092l-0.024,0.088c-0.189,0.727-1.631,7.306,5.956,14.65c5.32,5.148,9.927,5.917,12.2,5.917
			c1.459,0,2.349-0.295,2.571-0.41l0.121-0.062l0.137,0.016c0.261,0.027,0.531-0.042,0.807-0.208
			c0.691-0.41,1.911-1.454,2.373-2.031c0.243-0.303,0.35-0.554,0.322-0.751c-0.03-0.199-0.214-0.417-0.55-0.645l-5.874-4.021
			c-0.364-0.247-0.896-0.163-1.136,0.17l-1.523,2.158c-0.047,0.063-0.075,0.144-0.09,0.235l-0.031,0.22l-0.191,0.108
			c-0.14,0.08-0.536,0.267-1.177,0.267c-1.041,0-2.78-0.499-5.158-2.876c-3.249-3.244-4.417-5.446-3.786-7.142l0.085-0.227
			l0.235-0.056c0.093-0.022,0.164-0.055,0.221-0.098l2.11-1.599c0.342-0.259,0.402-0.771,0.133-1.144l-4.208-5.74
			C-80.825,47.091-81.071,47.091-81.151,47.091"/>
	</g>
	<g>
		<path fill="#FFFFFF" d="M-64.438,60.251c-0.192,0-0.372-0.125-0.433-0.319c-1.133-3.641-3.986-6.479-7.633-7.593
			c-0.239-0.072-0.375-0.326-0.301-0.566c0.072-0.238,0.325-0.373,0.565-0.301c3.935,1.201,7.012,4.264,8.233,8.191
			c0.074,0.238-0.06,0.493-0.298,0.566C-64.347,60.244-64.394,60.251-64.438,60.251"/>
	</g>
	<g>
		<path fill="#FFFFFF" d="M-60.766,60.445c-0.215,0-0.406-0.153-0.446-0.372c-1-5.525-5.18-9.93-10.646-11.225
			c-0.244-0.057-0.394-0.301-0.336-0.543c0.057-0.245,0.299-0.396,0.545-0.338c5.817,1.375,10.265,6.063,11.33,11.943
			c0.044,0.246-0.119,0.48-0.366,0.526C-60.712,60.442-60.74,60.445-60.766,60.445"/>
	</g>
</g>
</svg>
