<?xml version="1.0" encoding="utf-8"?>
<!-- Generator: Adobe Illustrator 16.0.0, SVG Export Plug-In . SVG Version: 6.00 Build 0)  -->
<!DOCTYPE svg PUBLIC "-//W3C//DTD SVG 1.1//EN" "http://www.w3.org/Graphics/SVG/1.1/DTD/svg11.dtd">
<svg version="1.1" id="Layer_1" xmlns="http://www.w3.org/2000/svg" xmlns:xlink="http://www.w3.org/1999/xlink" x="0px" y="0px"
	 width="205.936px" height="57.961px" viewBox="41.031 115.019 205.936 57.961"
	 enable-background="new 41.031 115.019 205.936 57.961" xml:space="preserve">
<g id="Modele">
</g>
<g id="Layer_1_1_">
	<g>
		<g>
			<path fill="#81AB40" d="M57.067,149.398c0,1.231-0.008,2.646,0.006,4.062c0.004,0.352,0.029,0.994,0.127,1.009
				c1.174,0.195,2.469,0.658,3.516,0.343c1.861-0.561,1.973-0.766,1.994,1.28c0.025,2.722,1.359,4.261,3.848,5.175
				c0.373-1.195,0.732-2.347,1.123-3.615c1.824,0.937,3.16,2.668,5.32,1.83c0.061-0.022,0.166,0.07,0.254,0.104
				c1.697,0.677,2.75-0.168,2.484-2.021c-0.115-0.813-0.303-1.616-0.521-2.754c0.875,0.44,1.492,0.834,2.162,1.069
				c0.957,0.337,1.941,0.671,2.943,0.802c1.115,0.145,1.811-0.61,1.889-1.637c0.107-1.395-0.102-2.695-1.324-3.763
				c-0.588-0.513-1.168-1.739-0.938-2.323c0.418-1.059,1.574-1.159,2.771-0.879c1.201,0.281,2.477,0.35,3.715,0.314
				c1.068-0.03,1.408-0.875,0.875-1.689c-1.006-1.533-2.066-3.069-3.342-4.374c-0.926-0.95-1.076-2.181-0.594-2.884
				c0.932-1.365,0.102-2.151-0.713-2.455c-1.422-0.532-3.031-0.9-4.525-0.796c-1.572,0.108-1.994,0.04-1.465-1.509
				c0.531-1.564,0.398-2.959-0.162-4.469c-0.475-1.268-1.119-1.185-2.002-0.591c-1.547,1.04-2.766,2.343-3.391,4.156
				c-0.152,0.444-0.52,0.816-0.834,1.289c-0.24-0.307-0.342-0.377-0.346-0.451c-0.055-0.791-0.078-1.584-0.145-2.373
				c-0.148-1.757-1.09-2.333-2.508-1.322c-1.525,1.086-3.154,2.117-3.861,4.077c-0.561,1.562-0.91,1.558-2.328,0.694
				c-1.232-0.753-2.613-1.718-3.965-0.485c-1.385,1.261-2.566,2.758-3.721,4.243c-0.162,0.207,0.211,1.111,0.568,1.376
				c0.498,0.365,1.225,0.402,1.836,0.629c0.693,0.257,1.363,0.567,2.045,0.854c-0.029,0.147-0.057,0.295-0.086,0.441
				c-1.117,0.22-2.238,0.43-3.354,0.661c-1.875,0.391-3.119,1.639-4.041,3.191c-0.73,1.229-0.207,2.207,1.229,2.369
				C53.353,149.182,55.112,149.255,57.067,149.398z"/>
			<path fill="#81AB40" d="M57.333,123.007c-1.201-1.323-2.082-2.337-3.018-3.294c-0.299-0.303-0.73-0.609-1.127-0.65
				c-1.383-0.146-3.057,1.031-3.764,2.476c-0.707,1.448-0.49,2.826,0.643,3.842c1.795,1.605,3.742,3.038,5.643,4.523
				c0.203,0.158,0.539,0.267,0.785,0.229c0.932-0.145,1.361,0.201,1.793,1.074c0.275,0.551,1.227,1.007,1.898,1.042
				c0.48,0.025,1.072-0.661,1.482-1.14c0.5-0.587,0.846-1.303,1.289-1.941c1.393-2,2.908-3.863,2.65-6.618
				c-0.234-2.466-0.258-4.929-2.188-6.769c-0.385-0.365-1.311-0.617-1.73-0.408c-1.773,0.886-3.01,2.257-3.334,4.353
				C58.206,120.706,57.771,121.643,57.333,123.007z"/>
			<path fill="#81AB40" d="M94.433,131.732c-0.35,0.292-0.898,0.646-1.314,1.118c-1.225,1.386-2.578,2.449-4.408,3.062
				c-0.92,0.31-1.582,1.47-2.275,2.313c-0.174,0.212-0.166,0.899,0.004,1.016c1.244,0.852,1.049,2.173,1.303,3.383
				c0.145,0.686,0.607,1.337,1.039,1.925c0.848,1.151,1.684,2.336,2.695,3.338c0.84,0.836,1.844,1.598,2.914,2.079
				c1.232,0.554,2.52-0.287,2.59-1.5c0.061-1.106,0.043-2.223-0.014-3.33c-0.018-0.339-0.217-0.712-0.438-0.987
				c-1.385-1.76-1.234-3.052,0.535-4.343c1.922-1.401,1.758-4.901-0.256-6.214C96.058,133.103,95.388,132.489,94.433,131.732z"/>
			<path fill="#81AB40" d="M54.224,154.234c-0.109-0.5-0.074-0.961-0.285-1.201c-1.086-1.232-2.064-2.676-3.408-3.532
				c-1.656-1.056-3.656-1.56-5.465-2.394c-1.145-0.524-1.887-0.136-2.477,0.804c-1.043,1.657-0.908,2.647,0.457,4.083
				c0.949,0.999,1.691,2.361,2.844,2.958c1.074,0.558,1.166,0.938,0.723,1.834c-0.844,1.706-1.711,3.401-2.518,5.126
				c-0.428,0.915-0.477,1.844,0.518,2.47c1.043,0.654,2.115,0.741,3.107-0.104c0.955-0.814,1.875-1.676,2.811-2.519
				c0.652-0.583,1.602-1.049,1.896-1.776C53.188,158.1,53.663,156.1,54.224,154.234z"/>
			<path fill="#81AB40" d="M46.196,135.062c-0.85,0.18-1.762,0.298-2.623,0.574c-1.543,0.494-2.639,2.139-2.535,3.642
				c0.084,1.256,1.035,2.003,2.863,2.418c0.732,0.165,1.428,0.523,2.121,0.84c1.006,0.461,1.984,0.645,2.82-0.281
				c0.871-0.967,1.59-2.101,2.57-2.934c1.006-0.852,1.467-1.705,1.186-3.012c-0.064-0.306,0.215-0.81,0.486-1.038
				c0.672-0.559,0.807-1.188,0.301-1.829c-1.572-1.996-3.162-3.979-4.836-5.888c-0.283-0.321-1.086-0.447-1.543-0.31
				c-2.133,0.637-3.455,3.205-2.66,4.819C44.853,133.089,45.548,134.023,46.196,135.062z"/>
			<path fill="#81AB40" d="M81.558,118.897c-0.516-0.651-0.736-1.157-1.123-1.386c-1.266-0.745-2.76-0.477-3.918,0.406
				c-0.756,0.579-1.631,1.041-2.516,1.399c-0.262,0.106-0.916-0.226-1.084-0.529c-0.471-0.834-0.684-1.819-1.188-2.626
				c-0.32-0.512-1.027-1.191-1.482-1.139c-1.855,0.218-3.975,4.288-3.309,6.041c0.477,1.253,1.043,2.495,1.307,3.796
				c0.469,2.306,1.848,3.598,4.051,4.055c0.475,0.097,1.232-0.019,1.514-0.339c1.16-1.317,2.17-2.769,3.273-4.137
				c0.742-0.918,1.584-1.762,2.328-2.681C80.142,120.858,80.806,119.903,81.558,118.897z"/>
			<path fill="#81AB40" d="M58.853,159.807c-1.703,0.068-2.654,1.545-3.83,2.805c-2.074,2.22-2.604,5.175-3.889,7.764
				c-0.105,0.212-0.061,0.595,0.066,0.811c0.365,0.623,0.811,1.201,1.223,1.795c0.527-0.477,1.049-0.961,1.588-1.427
				c0.543-0.466,1.078-0.95,1.666-1.357c0.492-0.339,1.15-0.479,1.564-0.884c0.889-0.871,1.219-0.435,1.75,0.407
				c0.633,1.005,1.465,1.9,2.305,2.753c0.262,0.268,0.861,0.41,1.238,0.32c1.471-0.352,2.961-2.835,2.51-4.306
				c-0.553-1.814-1.18-3.63-2.004-5.332c-0.404-0.834-1.285-1.478-2.037-2.099C60.442,160.596,59.737,160.312,58.853,159.807z"/>
			<path fill="#81AB40" d="M83.772,164.117c-0.072,0.023-0.143,0.047-0.215,0.07c0,0.278-0.051,0.569,0.008,0.836
				c0.324,1.434,1.369,2.285,2.676,2.541c0.564,0.109,1.621-0.459,1.881-0.996c0.617-1.266,1.4-2.784,1.188-4.043
				c-0.361-2.142,0.84-2.168,2.188-2.391c0.414-0.066,0.826-0.144,1.229-0.255c1.857-0.51,2.232-1.047,1.246-2.641
				c-1.064-1.72-2.479-3.23-3.771-4.804c-0.877-1.065-1.842-1.203-2.686-0.14c-1.1,1.383-1.977,2.724-3.91,3.313
				c-1.486,0.455-1.814,3.004-1.146,4.715C82.944,161.572,83.339,162.854,83.772,164.117z"/>
			<path fill="#81AB40" d="M79.292,130.585c-0.061,2.918,0.809,3.885,3.248,3.23c2.764-0.74,5.686-1.044,8.041-3.173
				c1.904-1.72,2.211-2.056,0.479-3.854c-0.256-0.269-0.686-0.423-1.062-0.518c-1.164-0.291-2.676-0.178-3.41-0.886
				c-0.66-0.64-0.482-2.153-0.658-3.283c-0.176-1.104-1.232-1.808-2.277-1.336c-0.684,0.311-1.371,0.829-1.809,1.435
				C79.972,124.798,79.837,127.94,79.292,130.585z"/>
			<path fill="#81AB40" d="M74.843,169.559c1.012,0.678,1.959,1.332,2.928,1.953c1.553,0.994,2.955,1.032,3.781-0.057
				c0.934-1.229,0.152-2.521-0.529-3.415c-1.324-1.733-2.852-3.354-4.512-4.771c-0.91-0.773-2.131-1.92-3.541-0.341
				c-0.373,0.416-1.271,0.357-1.93,0.52c-0.35,0.084-0.764,0.075-1.041,0.268c-2.676,1.849-2.984,5.228-0.725,7.617
				c1.998,2.11,4.201,1.618,5.141-1.142C74.483,169.991,74.657,169.824,74.843,169.559z"/>
			<path fill="#9BCC5D" d="M57.067,149.398c-1.955-0.145-3.715-0.219-5.459-0.416c-1.436-0.162-1.959-1.14-1.229-2.369
				c0.922-1.555,2.166-2.801,4.041-3.191c1.115-0.231,2.236-0.441,3.354-0.661c0.029-0.146,0.057-0.294,0.086-0.44
				c-0.682-0.287-1.352-0.598-2.045-0.854c-0.611-0.227-1.338-0.264-1.836-0.629c-0.357-0.265-0.73-1.169-0.568-1.376
				c1.154-1.485,2.336-2.982,3.721-4.243c1.352-1.231,2.732-0.268,3.965,0.485c1.418,0.863,1.768,0.868,2.328-0.694
				c0.707-1.96,2.336-2.991,3.861-4.077c1.418-1.011,2.359-0.435,2.508,1.322c0.066,0.789,0.09,1.582,0.145,2.373
				c0.004,0.074,0.105,0.145,0.346,0.451c0.314-0.473,0.682-0.845,0.834-1.289c0.625-1.813,1.844-3.116,3.391-4.156
				c0.883-0.594,1.527-0.677,2.002,0.591c0.561,1.51,0.693,2.904,0.162,4.469c-0.529,1.549-0.107,1.617,1.465,1.509
				c1.494-0.104,3.104,0.264,4.525,0.796c0.814,0.304,1.645,1.09,0.713,2.455c-0.482,0.703-0.332,1.934,0.594,2.884
				c1.275,1.305,2.336,2.841,3.342,4.374c0.533,0.814,0.193,1.659-0.875,1.689c-1.238,0.033-2.514-0.033-3.715-0.314
				c-1.197-0.279-2.354-0.18-2.771,0.879c-0.23,0.584,0.35,1.812,0.938,2.323c1.223,1.065,1.432,2.368,1.324,3.763
				c-0.078,1.025-0.773,1.78-1.889,1.637c-1.002-0.131-1.986-0.465-2.943-0.802c-0.67-0.235-1.287-0.629-2.162-1.069
				c0.219,1.138,0.406,1.939,0.521,2.754c0.266,1.853-0.787,2.697-2.484,2.021c-0.088-0.034-0.193-0.128-0.254-0.104
				c-2.16,0.838-3.496-0.895-5.32-1.829c-0.391,1.269-0.75,2.419-1.123,3.614c-2.488-0.914-3.822-2.453-3.848-5.174
				c-0.021-2.047-0.133-1.842-1.994-1.281c-1.047,0.315-2.342-0.146-3.516-0.342c-0.098-0.016-0.123-0.658-0.127-1.01
				C57.06,152.046,57.067,150.631,57.067,149.398z"/>
			<path fill="#81AB40" d="M57.333,123.007c0.438-1.364,0.873-2.301,1.023-3.281c0.324-2.096,1.561-3.467,3.334-4.353
				c0.42-0.209,1.346,0.043,1.73,0.408c1.93,1.84,1.953,4.303,2.188,6.769c0.258,2.755-1.258,4.618-2.65,6.618
				c-0.443,0.639-0.789,1.354-1.289,1.941c-0.41,0.479-1.002,1.165-1.482,1.14c-0.672-0.035-1.623-0.491-1.898-1.042
				c-0.432-0.873-0.861-1.219-1.793-1.074c-0.246,0.037-0.582-0.071-0.785-0.229c-1.9-1.485-3.848-2.918-5.643-4.523
				c-1.133-1.016-1.35-2.394-0.643-3.842c0.707-1.444,2.381-2.622,3.764-2.476c0.396,0.041,0.828,0.348,1.127,0.65
				C55.251,120.67,56.132,121.684,57.333,123.007z"/>
			<path fill="#81AB40" d="M94.433,131.732c0.955,0.757,1.625,1.37,2.375,1.86c2.014,1.312,2.178,4.812,0.256,6.214
				c-1.77,1.291-1.92,2.583-0.535,4.343c0.221,0.275,0.42,0.648,0.438,0.987c0.057,1.107,0.074,2.224,0.014,3.33
				c-0.07,1.213-1.357,2.054-2.59,1.5c-1.07-0.481-2.074-1.243-2.914-2.079c-1.012-1.002-1.848-2.187-2.695-3.338
				c-0.432-0.588-0.895-1.239-1.039-1.925c-0.254-1.21-0.059-2.531-1.303-3.383c-0.17-0.116-0.178-0.804-0.004-1.016
				c0.693-0.844,1.355-2.004,2.275-2.313c1.83-0.613,3.184-1.677,4.408-3.062C93.534,132.378,94.083,132.024,94.433,131.732z"/>
			<path fill="#81AB40" d="M54.224,154.234c-0.561,1.863-1.035,3.863-1.797,5.748c-0.295,0.729-1.244,1.193-1.896,1.776
				c-0.936,0.843-1.855,1.703-2.811,2.519c-0.992,0.846-2.064,0.759-3.107,0.104c-0.994-0.626-0.945-1.555-0.518-2.47
				c0.807-1.725,1.674-3.42,2.518-5.126c0.443-0.896,0.352-1.276-0.723-1.834c-1.152-0.597-1.895-1.959-2.844-2.958
				c-1.365-1.436-1.5-2.426-0.457-4.083c0.59-0.938,1.332-1.328,2.477-0.804c1.809,0.834,3.809,1.338,5.465,2.394
				c1.344,0.856,2.322,2.3,3.408,3.532C54.149,153.273,54.114,153.734,54.224,154.234z"/>
			<path fill="#81AB40" d="M46.196,135.062c-0.648-1.038-1.344-1.973-1.85-2.998c-0.795-1.614,0.527-4.183,2.66-4.819
				c0.457-0.138,1.26-0.012,1.543,0.31c1.674,1.908,3.264,3.893,4.836,5.888c0.506,0.641,0.371,1.271-0.301,1.829
				c-0.271,0.229-0.551,0.732-0.486,1.038c0.281,1.307-0.18,2.161-1.186,3.012c-0.98,0.833-1.699,1.967-2.57,2.934
				c-0.836,0.926-1.814,0.742-2.82,0.281c-0.693-0.315-1.389-0.675-2.121-0.84c-1.828-0.415-2.779-1.162-2.863-2.418
				c-0.104-1.503,0.992-3.147,2.535-3.643C44.435,135.359,45.347,135.241,46.196,135.062z"/>
			<path fill="#81AB40" d="M81.558,118.897c-0.752,1.006-1.416,1.961-2.146,2.861c-0.744,0.919-1.586,1.763-2.328,2.681
				c-1.104,1.368-2.113,2.819-3.273,4.137c-0.281,0.32-1.039,0.436-1.514,0.339c-2.203-0.457-3.582-1.749-4.051-4.055
				c-0.264-1.301-0.83-2.543-1.307-3.796c-0.666-1.753,1.453-5.823,3.309-6.041c0.455-0.053,1.162,0.627,1.482,1.139
				c0.504,0.807,0.717,1.792,1.188,2.626c0.168,0.304,0.822,0.636,1.084,0.529c0.885-0.358,1.76-0.82,2.516-1.399
				c1.158-0.883,2.652-1.151,3.918-0.406C80.821,117.74,81.042,118.246,81.558,118.897z"/>
			<path fill="#81AB40" d="M58.853,159.807c0.885,0.506,1.59,0.789,2.15,1.25c0.752,0.621,1.633,1.265,2.037,2.099
				c0.824,1.702,1.451,3.518,2.004,5.332c0.451,1.471-1.039,3.954-2.51,4.306c-0.377,0.09-0.977-0.054-1.238-0.32
				c-0.84-0.853-1.672-1.748-2.305-2.753c-0.531-0.842-0.861-1.278-1.75-0.407c-0.414,0.405-1.072,0.545-1.564,0.884
				c-0.588,0.407-1.123,0.893-1.666,1.357c-0.539,0.466-1.061,0.95-1.588,1.427c-0.412-0.594-0.857-1.172-1.223-1.795
				c-0.127-0.216-0.172-0.599-0.066-0.811c1.285-2.589,1.814-5.544,3.889-7.764C56.198,161.352,57.149,159.875,58.853,159.807z"/>
			<path fill="#81AB40" d="M83.772,164.117c-0.434-1.266-0.828-2.545-1.314-3.791c-0.668-1.711-0.34-4.26,1.146-4.715
				c1.934-0.592,2.811-1.932,3.91-3.313c0.844-1.063,1.809-0.927,2.686,0.14c1.293,1.572,2.707,3.084,3.771,4.804
				c0.986,1.594,0.611,2.131-1.246,2.641c-0.402,0.111-0.814,0.188-1.229,0.255c-1.348,0.223-2.549,0.249-2.188,2.392
				c0.213,1.258-0.57,2.776-1.188,4.043c-0.26,0.536-1.316,1.104-1.881,0.995c-1.307-0.256-2.352-1.107-2.676-2.541
				c-0.059-0.267-0.008-0.558-0.008-0.836C83.63,164.164,83.7,164.143,83.772,164.117z"/>
			<path fill="#81AB40" d="M79.292,130.585c0.545-2.645,0.68-5.787,2.551-8.385c0.438-0.605,1.125-1.124,1.809-1.435
				c1.045-0.472,2.102,0.231,2.277,1.336c0.176,1.13-0.002,2.644,0.658,3.283c0.734,0.708,2.246,0.595,3.41,0.886
				c0.377,0.095,0.807,0.249,1.062,0.518c1.732,1.799,1.426,2.135-0.479,3.854c-2.355,2.129-5.277,2.433-8.041,3.173
				C80.101,134.47,79.231,133.503,79.292,130.585z"/>
			<path fill="#81AB40" d="M74.843,169.559c-0.186,0.267-0.359,0.434-0.428,0.635c-0.939,2.759-3.143,3.25-5.141,1.141
				c-2.26-2.391-1.951-5.77,0.725-7.617c0.277-0.191,0.691-0.184,1.041-0.268c0.658-0.161,1.557-0.104,1.93-0.52
				c1.41-1.58,2.631-0.434,3.541,0.342c1.66,1.414,3.188,3.035,4.512,4.77c0.682,0.895,1.463,2.186,0.529,3.415
				c-0.826,1.089-2.229,1.051-3.781,0.057C76.802,170.891,75.854,170.234,74.843,169.559z"/>
		</g>
		<g>
			<path fill="#F1602C" d="M108.608,124.527h3.637v20.01h-3.637V124.527z"/>
			<path fill="#F1602C" d="M118.868,124.527h3.578v6.172c0,0.705-0.055,1.212-0.055,1.212h0.055c0,0,1.27-2.086,4.312-2.086
				c3.889,0,6.369,3.072,6.369,7.525c0,4.565-2.789,7.524-6.594,7.524c-2.988,0-4.285-2.142-4.285-2.142h-0.055
				c0,0,0.055,0.423,0.055,0.986v0.817h-3.381L118.868,124.527L118.868,124.527z M125.913,141.859c1.973,0,3.607-1.606,3.607-4.452
				c0-2.734-1.465-4.51-3.578-4.51c-1.861,0-3.607,1.353-3.607,4.537C122.335,139.661,123.519,141.859,125.913,141.859z"/>
			<path fill="#F1602C" d="M144.487,129.825c4.143,0,6.369,3.016,6.369,6.82c0,0.423-0.086,1.381-0.086,1.381h-9.919
				c0.227,2.509,2.17,3.806,4.312,3.806c2.311,0,4.143-1.579,4.143-1.579l1.381,2.565c0,0-2.196,2.057-5.776,2.057
				c-4.764,0-7.723-3.438-7.723-7.524C137.187,132.926,140.202,129.825,144.487,129.825z M147.249,135.575
				c-0.058-1.945-1.271-2.987-2.848-2.987c-1.832,0-3.1,1.127-3.438,2.987H147.249z M144.993,124.556h3.692l-2.959,3.833h-2.875
				L144.993,124.556z"/>
			<path fill="#F1602C" d="M155.93,130.164h3.438v2.479c0,0.536-0.058,1.015-0.058,1.015h0.058c0.647-2.057,2.366-3.691,4.563-3.691
				c0.34,0,0.648,0.056,0.648,0.056v3.523c0,0-0.365-0.057-0.846-0.057c-1.521,0-3.24,0.874-3.916,3.016
				c-0.228,0.705-0.312,1.494-0.312,2.339v5.693h-3.58v-14.373H155.93z"/>
			<path fill="#F1602C" d="M169.12,124.527h3.551v3.185h-3.551V124.527z M169.12,130.164h3.578v14.373h-3.578V130.164z"/>
			<path fill="#F1602C" d="M179.182,140.253c0,0,1.577,1.579,3.918,1.579c1.014,0,1.889-0.451,1.889-1.297
				c0-2.142-6.99-1.86-6.99-6.482c0-2.677,2.396-4.228,5.496-4.228c3.24,0,4.818,1.635,4.818,1.635l-1.324,2.649
				c0,0-1.324-1.24-3.521-1.24c-0.932,0-1.832,0.395-1.832,1.297c0,2.029,6.988,1.775,6.988,6.397c0,2.396-2.086,4.312-5.496,4.312
				c-3.578,0-5.58-2.113-5.58-2.113L179.182,140.253z"/>
		</g>
		<g>
			<path fill="#6D5E46" d="M108.608,151.604h4.26c2.262,0,3.947,1.427,3.947,3.779c0,2.354-1.686,3.815-3.947,3.815h-3.463v5.372
				h-0.797V151.604z M112.833,158.457c1.889,0,3.148-1.13,3.148-3.074c0-1.945-1.26-3.038-3.148-3.038h-3.428v6.112H112.833z"/>
			<path fill="#6D5E46" d="M129.022,160.088h-5.502l-1.666,4.482H121l4.854-12.967h0.854l4.854,12.967h-0.854L129.022,160.088z
				 M126.263,152.529c0,0-0.277,1.001-0.482,1.557l-1.98,5.262h4.945l-1.963-5.262c-0.205-0.556-0.482-1.557-0.482-1.557H126.263z"
				/>
			<path fill="#6D5E46" d="M139.729,152.345h-4.834v-0.741h10.464v0.741h-4.833v12.227h-0.797V152.345z"/>
			<path fill="#6D5E46" d="M151.216,151.604h3.798c1.202,0,1.813,0.131,2.334,0.39c1.073,0.537,1.797,1.63,1.797,3.112
				c0,1.853-1.074,3.24-2.595,3.574v0.037c0,0,0.13,0.148,0.298,0.463l2.907,5.392h-0.944l-3.074-5.742h-3.726v5.742h-0.795V151.604
				z M155.529,158.087c1.705,0,2.779-1.223,2.779-2.981c0-1.148-0.574-2.075-1.52-2.502c-0.369-0.166-0.777-0.259-1.814-0.259
				h-2.965v5.742H155.529z"/>
			<path fill="#6D5E46" d="M166.425,151.604h0.796v12.968h-0.796V151.604z"/>
			<path fill="#6D5E46" d="M175.593,151.604h0.777l3.778,8.15c0.297,0.63,0.631,1.464,0.631,1.464h0.037
				c0,0,0.332-0.834,0.629-1.464l3.779-8.15h0.777l1.037,12.968h-0.795l-0.797-9.893c-0.057-0.63-0.057-1.723-0.057-1.723h-0.037
				c0,0-0.369,1.093-0.666,1.723l-3.482,7.392h-0.816l-3.463-7.392c-0.277-0.61-0.686-1.76-0.686-1.76h-0.037c0,0,0,1.13-0.055,1.76
				l-0.797,9.893h-0.797L175.593,151.604z"/>
			<path fill="#6D5E46" d="M200.025,151.381c3.613,0,6.56,2.891,6.56,6.613c0,3.816-2.944,6.799-6.56,6.799
				c-3.61,0-6.557-2.982-6.557-6.799C193.471,154.271,196.415,151.381,200.025,151.381z M200.025,164.033
				c3.168,0,5.726-2.631,5.726-6.039c0-3.315-2.558-5.854-5.726-5.854s-5.723,2.537-5.723,5.854
				C194.305,161.402,196.857,164.033,200.025,164.033z"/>
			<path fill="#6D5E46" d="M213.384,151.604h0.796v12.968h-0.796V151.604z"/>
			<path fill="#6D5E46" d="M221.886,151.604h0.74l7.394,10.17c0.426,0.594,1.055,1.631,1.055,1.631h0.037
				c0,0-0.092-0.981-0.092-1.631v-10.17h0.797v12.968h-0.742l-7.391-10.171c-0.427-0.592-1.058-1.629-1.058-1.629h-0.037
				c0,0,0.095,0.98,0.095,1.629v10.171h-0.798V151.604z"/>
			<path fill="#6D5E46" d="M239.521,151.604h7.095v0.741h-6.3v5.316h5.17v0.739h-5.17v5.429h6.65v0.741h-7.445V151.604
				L239.521,151.604z"/>
		</g>
	</g>
</g>
</svg>
