<?xml version="1.0" encoding="utf-8"?>
<!-- Generator: Adobe Illustrator 16.0.0, SVG Export Plug-In . SVG Version: 6.00 Build 0)  -->
<!DOCTYPE svg PUBLIC "-//W3C//DTD SVG 1.1//EN" "http://www.w3.org/Graphics/SVG/1.1/DTD/svg11.dtd">
<svg version="1.1" id="Layer_1" xmlns="http://www.w3.org/2000/svg" xmlns:xlink="http://www.w3.org/1999/xlink" x="0px" y="0px"
	 width="205.934px" height="57.961px" viewBox="40.387 115.498 205.934 57.961"
	 enable-background="new 40.387 115.498 205.934 57.961" xml:space="preserve">
<g id="Modele">
</g>
<g id="Layer_1_1_">
	<g>
		<g>
			<path fill="#81AB40" d="M56.423,149.877c0,1.23-0.008,2.645,0.007,4.061c0.004,0.354,0.028,0.994,0.127,1.01
				c1.174,0.195,2.469,0.658,3.516,0.344c1.861-0.562,1.973-0.768,1.994,1.279c0.025,2.723,1.359,4.262,3.848,5.176
				c0.373-1.195,0.732-2.348,1.123-3.615c1.824,0.936,3.16,2.668,5.32,1.83c0.061-0.023,0.166,0.068,0.254,0.104
				c1.697,0.678,2.75-0.168,2.484-2.021c-0.115-0.812-0.304-1.615-0.521-2.754c0.875,0.439,1.492,0.834,2.162,1.068
				c0.957,0.338,1.941,0.672,2.943,0.803c1.114,0.145,1.811-0.609,1.889-1.637c0.107-1.395-0.102-2.695-1.324-3.764
				c-0.588-0.512-1.168-1.738-0.938-2.322c0.418-1.059,1.573-1.16,2.771-0.879c1.201,0.281,2.478,0.35,3.715,0.314
				c1.068-0.031,1.408-0.875,0.875-1.689c-1.006-1.533-2.065-3.068-3.342-4.375c-0.926-0.949-1.076-2.18-0.594-2.883
				c0.932-1.365,0.102-2.152-0.713-2.455c-1.422-0.533-3.031-0.9-4.525-0.797c-1.572,0.109-1.994,0.041-1.465-1.508
				c0.531-1.564,0.398-2.959-0.162-4.471c-0.475-1.268-1.119-1.184-2.002-0.59c-1.547,1.039-2.766,2.344-3.391,4.156
				c-0.152,0.443-0.521,0.816-0.834,1.289c-0.24-0.307-0.343-0.377-0.347-0.451c-0.055-0.791-0.078-1.584-0.145-2.373
				c-0.148-1.758-1.09-2.334-2.508-1.322c-1.525,1.086-3.154,2.117-3.861,4.076c-0.561,1.562-0.91,1.559-2.328,0.695
				c-1.231-0.754-2.613-1.719-3.965-0.486c-1.385,1.262-2.566,2.76-3.721,4.244c-0.162,0.207,0.211,1.111,0.567,1.375
				c0.498,0.365,1.226,0.402,1.836,0.629c0.693,0.258,1.363,0.568,2.045,0.855c-0.028,0.146-0.057,0.295-0.086,0.439
				c-1.116,0.221-2.237,0.432-3.354,0.662c-1.875,0.391-3.119,1.639-4.041,3.191c-0.73,1.229-0.207,2.207,1.229,2.369
				C52.709,149.66,54.469,149.732,56.423,149.877z"/>
			<path fill="#81AB40" d="M56.689,123.484c-1.201-1.322-2.082-2.336-3.019-3.293c-0.299-0.303-0.729-0.609-1.127-0.65
				c-1.383-0.146-3.057,1.031-3.764,2.477c-0.707,1.447-0.49,2.826,0.643,3.842c1.796,1.605,3.742,3.037,5.644,4.523
				c0.203,0.158,0.539,0.266,0.785,0.229c0.932-0.145,1.36,0.201,1.793,1.074c0.274,0.551,1.227,1.006,1.897,1.041
				c0.48,0.025,1.072-0.66,1.482-1.139c0.5-0.588,0.846-1.303,1.289-1.941c1.393-2,2.908-3.863,2.649-6.619
				c-0.233-2.465-0.258-4.928-2.188-6.768c-0.385-0.365-1.312-0.617-1.73-0.408c-1.772,0.887-3.01,2.256-3.334,4.354
				C57.562,121.184,57.127,122.121,56.689,123.484z"/>
			<path fill="#81AB40" d="M93.789,132.211c-0.35,0.291-0.897,0.645-1.313,1.117c-1.226,1.387-2.578,2.449-4.408,3.062
				c-0.92,0.311-1.582,1.469-2.275,2.312c-0.174,0.213-0.166,0.898,0.004,1.016c1.244,0.852,1.05,2.174,1.304,3.383
				c0.145,0.688,0.606,1.338,1.039,1.926c0.848,1.15,1.684,2.336,2.694,3.338c0.84,0.836,1.845,1.598,2.914,2.078
				c1.232,0.555,2.521-0.285,2.59-1.5c0.062-1.105,0.043-2.223-0.014-3.33c-0.018-0.338-0.217-0.711-0.438-0.986
				c-1.386-1.76-1.234-3.051,0.534-4.342c1.923-1.402,1.759-4.902-0.256-6.215C95.414,133.582,94.744,132.967,93.789,132.211z"/>
			<path fill="#81AB40" d="M53.58,154.713c-0.108-0.5-0.074-0.961-0.285-1.201c-1.086-1.232-2.063-2.676-3.407-3.533
				c-1.656-1.055-3.656-1.559-5.466-2.393c-1.145-0.525-1.887-0.137-2.477,0.803c-1.043,1.658-0.908,2.648,0.457,4.084
				c0.949,0.998,1.691,2.361,2.844,2.957c1.074,0.559,1.166,0.939,0.724,1.834c-0.845,1.707-1.711,3.402-2.519,5.127
				c-0.428,0.914-0.477,1.844,0.519,2.469c1.043,0.654,2.114,0.742,3.106-0.104c0.955-0.814,1.875-1.676,2.812-2.52
				c0.651-0.582,1.602-1.049,1.896-1.775C52.544,158.578,53.019,156.578,53.58,154.713z"/>
			<path fill="#81AB40" d="M45.552,135.541c-0.851,0.18-1.763,0.297-2.623,0.574c-1.543,0.492-2.64,2.139-2.535,3.641
				c0.084,1.256,1.035,2.004,2.862,2.418c0.732,0.166,1.429,0.523,2.121,0.84c1.007,0.461,1.984,0.646,2.82-0.281
				c0.871-0.967,1.59-2.1,2.57-2.934c1.006-0.852,1.467-1.705,1.186-3.012c-0.063-0.307,0.215-0.811,0.486-1.037
				c0.672-0.561,0.807-1.189,0.301-1.83c-1.572-1.996-3.162-3.979-4.836-5.887c-0.283-0.322-1.086-0.447-1.543-0.311
				c-2.133,0.637-3.455,3.205-2.66,4.818C44.209,133.566,44.904,134.502,45.552,135.541z"/>
			<path fill="#81AB40" d="M80.914,119.375c-0.516-0.65-0.735-1.156-1.123-1.385c-1.266-0.746-2.76-0.479-3.918,0.404
				c-0.756,0.58-1.631,1.041-2.516,1.4c-0.262,0.105-0.916-0.227-1.084-0.529c-0.471-0.834-0.685-1.82-1.188-2.627
				c-0.319-0.512-1.026-1.189-1.481-1.139c-1.855,0.219-3.976,4.289-3.31,6.041c0.478,1.254,1.043,2.496,1.308,3.797
				c0.469,2.305,1.848,3.598,4.051,4.055c0.475,0.098,1.232-0.02,1.514-0.34c1.16-1.316,2.17-2.768,3.273-4.137
				c0.742-0.918,1.584-1.762,2.328-2.682C79.498,121.336,80.162,120.381,80.914,119.375z"/>
			<path fill="#81AB40" d="M58.209,160.285c-1.703,0.068-2.653,1.545-3.83,2.805c-2.073,2.221-2.604,5.176-3.889,7.764
				c-0.104,0.213-0.061,0.596,0.066,0.812c0.364,0.623,0.811,1.201,1.223,1.795c0.527-0.479,1.049-0.961,1.588-1.428
				c0.543-0.467,1.078-0.949,1.666-1.357c0.492-0.338,1.15-0.479,1.564-0.883c0.889-0.871,1.219-0.436,1.75,0.406
				c0.633,1.006,1.465,1.9,2.305,2.754c0.262,0.268,0.861,0.408,1.238,0.318c1.471-0.352,2.961-2.834,2.51-4.305
				c-0.553-1.814-1.18-3.631-2.004-5.332c-0.404-0.834-1.285-1.479-2.037-2.1C59.798,161.074,59.094,160.791,58.209,160.285z"/>
			<path fill="#81AB40" d="M83.128,164.596c-0.071,0.023-0.143,0.047-0.215,0.07c0,0.277-0.051,0.568,0.008,0.836
				c0.324,1.434,1.369,2.285,2.677,2.541c0.563,0.107,1.621-0.459,1.881-0.996c0.617-1.268,1.399-2.785,1.188-4.043
				c-0.36-2.143,0.84-2.168,2.188-2.393c0.414-0.064,0.826-0.143,1.229-0.254c1.857-0.51,2.232-1.047,1.246-2.641
				c-1.063-1.721-2.479-3.23-3.771-4.805c-0.877-1.064-1.842-1.203-2.687-0.141c-1.1,1.383-1.977,2.725-3.91,3.314
				c-1.485,0.455-1.813,3.004-1.146,4.715C82.301,162.051,82.695,163.332,83.128,164.596z"/>
			<path fill="#81AB40" d="M78.648,131.062c-0.062,2.918,0.809,3.887,3.248,3.23c2.764-0.74,5.686-1.043,8.041-3.172
				c1.904-1.721,2.211-2.057,0.479-3.855c-0.256-0.268-0.686-0.422-1.062-0.518c-1.164-0.291-2.676-0.178-3.41-0.887
				c-0.66-0.639-0.482-2.152-0.658-3.281c-0.176-1.105-1.231-1.809-2.276-1.336c-0.685,0.311-1.371,0.828-1.81,1.434
				C79.328,125.275,79.193,128.418,78.648,131.062z"/>
			<path fill="#81AB40" d="M74.199,170.037c1.012,0.678,1.959,1.332,2.928,1.953c1.554,0.994,2.955,1.031,3.781-0.057
				c0.935-1.229,0.152-2.521-0.529-3.416c-1.323-1.732-2.852-3.354-4.512-4.77c-0.91-0.773-2.131-1.92-3.541-0.342
				c-0.373,0.416-1.271,0.357-1.93,0.52c-0.351,0.084-0.765,0.076-1.041,0.268c-2.676,1.85-2.984,5.229-0.726,7.617
				c1.998,2.111,4.201,1.619,5.142-1.141C73.839,170.469,74.013,170.303,74.199,170.037z"/>
			<path fill="#9BCC5D" d="M56.423,149.877c-1.954-0.146-3.715-0.219-5.459-0.416c-1.436-0.162-1.959-1.141-1.229-2.369
				c0.922-1.555,2.166-2.801,4.041-3.191c1.115-0.23,2.236-0.441,3.354-0.66c0.029-0.146,0.058-0.295,0.087-0.441
				c-0.683-0.287-1.353-0.598-2.046-0.854c-0.61-0.227-1.338-0.264-1.836-0.629c-0.356-0.266-0.729-1.17-0.567-1.377
				c1.153-1.484,2.336-2.98,3.721-4.242c1.352-1.23,2.732-0.268,3.965,0.484c1.418,0.863,1.769,0.869,2.328-0.693
				c0.707-1.961,2.336-2.99,3.861-4.076c1.418-1.012,2.358-0.436,2.508,1.32c0.066,0.789,0.09,1.582,0.145,2.373
				c0.005,0.074,0.105,0.146,0.347,0.451c0.313-0.473,0.682-0.844,0.834-1.289c0.625-1.812,1.844-3.115,3.391-4.156
				c0.883-0.594,1.527-0.676,2.002,0.592c0.562,1.51,0.693,2.904,0.162,4.469c-0.529,1.549-0.107,1.617,1.465,1.51
				c1.494-0.104,3.104,0.264,4.525,0.795c0.813,0.305,1.645,1.09,0.713,2.455c-0.482,0.703-0.332,1.936,0.594,2.885
				c1.275,1.305,2.336,2.842,3.342,4.373c0.533,0.814,0.193,1.66-0.875,1.689c-1.237,0.033-2.514-0.033-3.715-0.314
				c-1.196-0.277-2.354-0.18-2.771,0.879c-0.23,0.584,0.35,1.812,0.938,2.324c1.224,1.064,1.433,2.367,1.324,3.762
				c-0.078,1.025-0.773,1.781-1.889,1.639c-1.002-0.131-1.986-0.465-2.943-0.803c-0.67-0.234-1.287-0.629-2.162-1.068
				c0.219,1.137,0.406,1.938,0.521,2.754c0.266,1.852-0.787,2.697-2.484,2.02c-0.088-0.033-0.193-0.127-0.254-0.104
				c-2.16,0.838-3.496-0.895-5.32-1.828c-0.391,1.27-0.75,2.418-1.123,3.613c-2.487-0.914-3.821-2.453-3.848-5.174
				c-0.021-2.047-0.133-1.842-1.994-1.281c-1.047,0.314-2.342-0.146-3.516-0.342c-0.099-0.016-0.123-0.658-0.127-1.01
				C56.416,152.523,56.423,151.109,56.423,149.877z"/>
			<path fill="#81AB40" d="M56.689,123.484c0.438-1.363,0.873-2.301,1.022-3.279c0.324-2.098,1.562-3.469,3.334-4.354
				c0.421-0.209,1.347,0.043,1.73,0.408c1.93,1.84,1.953,4.303,2.188,6.768c0.259,2.756-1.258,4.619-2.649,6.619
				c-0.443,0.639-0.789,1.354-1.289,1.941c-0.41,0.479-1.002,1.164-1.482,1.139c-0.672-0.035-1.623-0.49-1.897-1.041
				c-0.433-0.873-0.861-1.219-1.793-1.074c-0.246,0.037-0.582-0.07-0.785-0.229c-1.9-1.486-3.848-2.918-5.643-4.523
				c-1.134-1.016-1.351-2.395-0.644-3.842c0.707-1.445,2.381-2.623,3.764-2.477c0.396,0.041,0.828,0.348,1.127,0.65
				C54.607,121.148,55.488,122.162,56.689,123.484z"/>
			<path fill="#81AB40" d="M93.789,132.211c0.955,0.756,1.625,1.369,2.375,1.859c2.015,1.312,2.179,4.812,0.256,6.215
				c-1.77,1.291-1.92,2.582-0.534,4.342c0.221,0.275,0.42,0.648,0.438,0.988c0.057,1.105,0.074,2.223,0.014,3.328
				c-0.069,1.215-1.356,2.055-2.59,1.5c-1.069-0.48-2.074-1.242-2.914-2.078c-1.012-1.002-1.848-2.188-2.694-3.338
				c-0.433-0.588-0.896-1.238-1.039-1.926c-0.254-1.209-0.06-2.531-1.304-3.383c-0.17-0.115-0.178-0.803-0.004-1.016
				c0.693-0.844,1.355-2.004,2.275-2.312c1.83-0.613,3.184-1.678,4.408-3.062C92.89,132.855,93.439,132.502,93.789,132.211z"/>
			<path fill="#81AB40" d="M53.58,154.713c-0.561,1.863-1.035,3.863-1.797,5.748c-0.295,0.729-1.244,1.191-1.896,1.775
				c-0.937,0.844-1.855,1.703-2.812,2.52c-0.992,0.846-2.063,0.758-3.106,0.104c-0.994-0.627-0.945-1.555-0.519-2.471
				c0.808-1.725,1.674-3.42,2.519-5.125c0.442-0.896,0.352-1.277-0.724-1.834c-1.151-0.598-1.895-1.959-2.844-2.959
				c-1.365-1.436-1.5-2.426-0.457-4.082c0.59-0.938,1.332-1.328,2.477-0.805c1.81,0.834,3.81,1.338,5.466,2.395
				c1.344,0.855,2.321,2.299,3.407,3.531C53.505,153.752,53.47,154.213,53.58,154.713z"/>
			<path fill="#81AB40" d="M45.552,135.541c-0.648-1.039-1.345-1.975-1.851-2.998c-0.795-1.615,0.527-4.184,2.66-4.82
				c0.457-0.137,1.26-0.012,1.543,0.311c1.674,1.908,3.264,3.893,4.836,5.889c0.506,0.641,0.371,1.27-0.301,1.828
				c-0.271,0.229-0.551,0.732-0.486,1.039c0.281,1.307-0.18,2.16-1.186,3.012c-0.98,0.832-1.699,1.967-2.57,2.934
				c-0.836,0.926-1.813,0.742-2.82,0.281c-0.692-0.314-1.389-0.676-2.121-0.84c-1.827-0.416-2.778-1.162-2.862-2.418
				c-0.104-1.504,0.992-3.148,2.535-3.645C43.791,135.838,44.703,135.719,45.552,135.541z"/>
			<path fill="#81AB40" d="M80.914,119.375c-0.752,1.006-1.416,1.961-2.146,2.861c-0.744,0.918-1.586,1.764-2.328,2.682
				c-1.104,1.367-2.113,2.818-3.273,4.137c-0.28,0.32-1.039,0.436-1.514,0.338c-2.203-0.457-3.582-1.748-4.051-4.055
				c-0.265-1.301-0.83-2.543-1.308-3.795c-0.666-1.754,1.453-5.824,3.31-6.041c0.455-0.053,1.162,0.627,1.481,1.139
				c0.504,0.807,0.718,1.791,1.188,2.625c0.168,0.305,0.822,0.637,1.084,0.529c0.885-0.357,1.76-0.82,2.516-1.398
				c1.158-0.883,2.652-1.15,3.918-0.406C80.177,118.219,80.398,118.725,80.914,119.375z"/>
			<path fill="#81AB40" d="M58.209,160.285c0.886,0.506,1.591,0.789,2.15,1.25c0.752,0.621,1.633,1.266,2.037,2.1
				c0.824,1.701,1.451,3.518,2.004,5.332c0.451,1.471-1.039,3.953-2.51,4.305c-0.377,0.09-0.978-0.053-1.238-0.318
				c-0.84-0.854-1.672-1.748-2.305-2.754c-0.531-0.842-0.861-1.277-1.75-0.406c-0.414,0.404-1.072,0.545-1.564,0.883
				c-0.588,0.408-1.123,0.893-1.666,1.357c-0.539,0.467-1.061,0.949-1.588,1.428c-0.412-0.594-0.857-1.172-1.223-1.795
				c-0.127-0.217-0.172-0.6-0.066-0.812c1.285-2.588,1.814-5.543,3.889-7.764C55.554,161.83,56.505,160.354,58.209,160.285z"/>
			<path fill="#81AB40" d="M83.128,164.596c-0.434-1.266-0.827-2.545-1.313-3.791c-0.668-1.711-0.34-4.26,1.146-4.715
				c1.935-0.592,2.812-1.932,3.91-3.314c0.844-1.062,1.81-0.926,2.687,0.141c1.293,1.572,2.707,3.084,3.771,4.805
				c0.986,1.594,0.611,2.131-1.246,2.641c-0.401,0.111-0.813,0.188-1.229,0.256c-1.349,0.223-2.549,0.248-2.188,2.391
				c0.213,1.258-0.569,2.777-1.188,4.043c-0.26,0.537-1.316,1.105-1.881,0.996c-1.308-0.256-2.353-1.107-2.677-2.541
				c-0.059-0.268-0.008-0.559-0.008-0.836C82.986,164.643,83.056,164.621,83.128,164.596z"/>
			<path fill="#81AB40" d="M78.648,131.062c0.545-2.645,0.68-5.787,2.551-8.385c0.438-0.604,1.125-1.123,1.81-1.434
				c1.045-0.473,2.102,0.23,2.276,1.336c0.176,1.129-0.002,2.643,0.658,3.281c0.734,0.709,2.246,0.596,3.41,0.887
				c0.377,0.096,0.807,0.25,1.062,0.518c1.732,1.799,1.427,2.135-0.479,3.855c-2.355,2.129-5.277,2.432-8.041,3.172
				C79.457,134.949,78.587,133.98,78.648,131.062z"/>
			<path fill="#81AB40" d="M74.199,170.037c-0.186,0.268-0.359,0.434-0.428,0.635c-0.939,2.76-3.144,3.25-5.142,1.141
				c-2.26-2.391-1.95-5.77,0.726-7.617c0.276-0.189,0.69-0.184,1.041-0.268c0.658-0.16,1.557-0.104,1.93-0.52
				c1.41-1.58,2.631-0.434,3.541,0.342c1.66,1.414,3.188,3.035,4.512,4.77c0.683,0.896,1.464,2.188,0.529,3.416
				c-0.826,1.088-2.229,1.051-3.781,0.057C76.158,171.369,75.21,170.713,74.199,170.037z"/>
		</g>
		<g>
			<path fill="#F1602C" d="M107.964,125.006h3.637v20.01h-3.637V125.006z"/>
			<path fill="#F1602C" d="M118.224,125.006h3.578v6.172c0,0.705-0.055,1.211-0.055,1.211h0.055c0,0,1.27-2.086,4.312-2.086
				c3.889,0,6.369,3.072,6.369,7.525c0,4.564-2.789,7.523-6.594,7.523c-2.988,0-4.285-2.141-4.285-2.141h-0.055
				c0,0,0.055,0.422,0.055,0.984v0.818h-3.381V125.006L118.224,125.006z M125.269,142.338c1.973,0,3.607-1.607,3.607-4.453
				c0-2.734-1.465-4.51-3.578-4.51c-1.861,0-3.607,1.354-3.607,4.537C121.691,140.139,122.874,142.338,125.269,142.338z"/>
			<path fill="#F1602C" d="M143.843,130.303c4.143,0,6.369,3.016,6.369,6.82c0,0.424-0.086,1.381-0.086,1.381h-9.92
				c0.229,2.51,2.17,3.807,4.312,3.807c2.311,0,4.143-1.58,4.143-1.58l1.381,2.566c0,0-2.195,2.057-5.775,2.057
				c-4.764,0-7.723-3.438-7.723-7.523C136.542,133.404,139.558,130.303,143.843,130.303z M146.605,136.053
				c-0.059-1.945-1.271-2.986-2.848-2.986c-1.832,0-3.1,1.127-3.438,2.986H146.605z M144.349,125.035h3.691l-2.959,3.832h-2.875
				L144.349,125.035z"/>
			<path fill="#F1602C" d="M155.286,130.643h3.438v2.479c0,0.537-0.059,1.016-0.059,1.016h0.059
				c0.646-2.057,2.365-3.691,4.562-3.691c0.34,0,0.648,0.057,0.648,0.057v3.521c0,0-0.365-0.057-0.846-0.057
				c-1.521,0-3.24,0.875-3.916,3.016c-0.229,0.705-0.312,1.494-0.312,2.34v5.693h-3.58v-14.373H155.286z"/>
			<path fill="#F1602C" d="M168.476,125.006h3.551v3.184h-3.551V125.006z M168.476,130.643h3.578v14.373h-3.578V130.643z"/>
			<path fill="#F1602C" d="M178.538,140.73c0,0,1.576,1.58,3.918,1.58c1.014,0,1.889-0.451,1.889-1.297
				c0-2.143-6.99-1.861-6.99-6.482c0-2.678,2.396-4.229,5.496-4.229c3.24,0,4.818,1.635,4.818,1.635l-1.324,2.65
				c0,0-1.324-1.24-3.521-1.24c-0.932,0-1.832,0.395-1.832,1.297c0,2.029,6.988,1.775,6.988,6.396c0,2.396-2.086,4.312-5.496,4.312
				c-3.578,0-5.58-2.113-5.58-2.113L178.538,140.73z"/>
		</g>
		<g>
			<g>
				<path fill="#6D5E46" d="M107.839,165.174v-13.217h4.385c2.436,0,4.072,1.569,4.072,3.904c0,2.356-1.637,3.939-4.072,3.939
					h-3.338v5.373H107.839z M112.189,158.811c1.865,0,3.023-1.13,3.023-2.949c0-1.823-1.13-2.912-3.023-2.912h-3.303v5.861H112.189z
					"/>
				<path fill="#6D5E46" d="M112.224,152.082c2.262,0,3.947,1.428,3.947,3.779c0,2.354-1.686,3.814-3.947,3.814h-3.463v5.373h-0.797
					v-12.967H112.224 M108.761,158.936h3.428c1.889,0,3.148-1.131,3.148-3.074c0-1.945-1.26-3.037-3.148-3.037h-3.428V158.936
					 M112.224,151.832h-4.26h-0.25v0.25v12.967v0.25h0.25h0.797h0.25v-0.25v-5.123h3.213c2.471,0,4.197-1.672,4.197-4.064
					C116.421,153.451,114.735,151.832,112.224,151.832L112.224,151.832z M109.011,153.074h3.178c1.814,0,2.898,1.042,2.898,2.787
					c0,1.769-1.084,2.824-2.898,2.824h-3.178V153.074L109.011,153.074z"/>
			</g>
			<g>
				<path fill="#6D5E46" d="M129.977,165.174l-1.686-4.482h-5.328l-1.666,4.482h-1.121l4.947-13.217h1.027l4.947,13.217H129.977z
					 M127.923,159.701l-1.9-5.093c-0.129-0.352-0.285-0.869-0.385-1.212c-0.099,0.343-0.253,0.86-0.383,1.211l-1.917,5.094H127.923z
					"/>
				<path fill="#6D5E46" d="M126.064,152.082l4.854,12.967h-0.854l-1.686-4.482h-5.502l-1.666,4.482h-0.854l4.854-12.967H126.064
					 M123.157,159.826h4.945l-1.963-5.262c-0.205-0.557-0.482-1.557-0.482-1.557h-0.039c0,0-0.275,1-0.48,1.557L123.157,159.826
					 M126.238,151.832h-0.174h-0.854h-0.174l-0.061,0.162l-4.854,12.967l-0.126,0.338h0.36h0.854h0.174l0.061-0.163l1.605-4.319
					h5.155l1.624,4.32l0.062,0.162h0.173h0.854h0.36l-0.126-0.338l-4.854-12.967L126.238,151.832L126.238,151.832z M123.519,159.576
					l1.854-4.924c0.086-0.232,0.182-0.537,0.267-0.815c0.084,0.278,0.181,0.582,0.267,0.813l1.837,4.926H123.519L123.519,159.576z"
					/>
			</g>
			<g>
				<polygon fill="#6D5E46" points="138.96,165.176 138.96,152.949 134.126,152.949 134.126,151.957 144.839,151.957 
					144.839,152.949 140.007,152.949 140.007,165.176 				"/>
				<path fill="#6D5E46" d="M144.714,152.082v0.742h-4.832v12.227h-0.797v-12.227h-4.834v-0.742H144.714 M144.964,151.832h-0.25
					h-10.463h-0.25v0.25v0.742v0.25h0.25h4.584v11.977v0.25h0.25h0.797h0.25v-0.25v-11.977h4.582h0.25v-0.25v-0.742V151.832
					L144.964,151.832z"/>
			</g>
			<g>
				<path fill="#6D5E46" d="M158.092,165.176l-3.074-5.742h-3.526v5.742h-1.045v-13.219h3.924c1.137,0,1.807,0.113,2.39,0.403
					c1.187,0.595,1.866,1.77,1.866,3.224c0,1.794-1.01,3.24-2.53,3.656c0.053,0.074,0.131,0.195,0.219,0.359l3.005,5.576H158.092z
					 M154.886,158.439c1.611,0,2.652-1.121,2.652-2.855c0-1.086-0.541-1.979-1.446-2.388c-0.347-0.156-0.747-0.247-1.763-0.247
					h-2.84v5.49H154.886z"/>
				<path fill="#6D5E46" d="M154.37,152.082c1.201,0,1.812,0.131,2.334,0.391c1.072,0.537,1.797,1.629,1.797,3.111
					c0,1.854-1.074,3.24-2.596,3.574v0.037c0,0,0.131,0.148,0.299,0.463l2.906,5.393h-0.943l-3.074-5.742h-3.727v5.742h-0.795
					v-12.969H154.37 M151.365,158.564h3.521c1.703,0,2.777-1.223,2.777-2.98c0-1.148-0.574-2.074-1.52-2.502
					c-0.369-0.166-0.777-0.258-1.814-0.258h-2.965V158.564 M154.37,151.832h-3.799h-0.25v0.25v12.969v0.25h0.25h0.795h0.25v-0.25
					v-5.492h3.327l3.003,5.61l0.071,0.132h0.149h0.943h0.419l-0.199-0.369l-2.906-5.393c-0.047-0.088-0.091-0.163-0.131-0.228
					c1.483-0.487,2.458-1.94,2.458-3.728c0-1.504-0.705-2.719-1.935-3.335C156.214,151.949,155.529,151.832,154.37,151.832
					L154.37,151.832z M151.615,153.074h2.715c0.993,0,1.38,0.086,1.712,0.236c0.858,0.389,1.372,1.238,1.372,2.273
					c0,1.658-0.992,2.73-2.527,2.73h-3.271V153.074L151.615,153.074z"/>
			</g>
			<g>
				<rect x="165.656" y="151.957" fill="#6D5E46" width="1.047" height="13.219"/>
				<path fill="#6D5E46" d="M166.577,152.082v12.969h-0.797v-12.969H166.577 M166.827,151.832h-0.25h-0.797h-0.25v0.25v12.969v0.25
					h0.25h0.797h0.25v-0.25v-12.969V151.832L166.827,151.832z"/>
			</g>
			<g>
				<path fill="#6D5E46" d="M185.484,165.176l-0.807-10.008c-0.029-0.326-0.043-0.771-0.05-1.128
					c-0.133,0.364-0.312,0.831-0.472,1.172l-3.517,7.462h-0.975l-3.497-7.463c-0.155-0.342-0.348-0.842-0.49-1.225
					c-0.006,0.373-0.021,0.845-0.049,1.183l-0.807,10.007h-1.048l1.06-13.219h0.973l3.811,8.223c0.199,0.42,0.415,0.932,0.537,1.228
					c0.121-0.296,0.336-0.808,0.535-1.229l3.811-8.222h0.973l1.058,13.219H185.484z"/>
				<path fill="#6D5E46" d="M185.357,152.082l1.037,12.969h-0.795l-0.797-9.893c-0.057-0.631-0.057-1.725-0.057-1.725h-0.037
					c0,0-0.369,1.094-0.666,1.725l-3.482,7.391h-0.816l-3.463-7.391c-0.277-0.611-0.686-1.762-0.686-1.762h-0.037
					c0,0,0,1.131-0.055,1.762l-0.797,9.893h-0.797l1.039-12.969h0.777l3.777,8.15c0.299,0.629,0.633,1.463,0.633,1.463h0.035
					c0,0,0.332-0.834,0.631-1.463l3.777-8.15H185.357 M185.587,151.832h-0.23h-0.777h-0.16l-0.066,0.145l-3.777,8.15
					c-0.148,0.312-0.303,0.669-0.422,0.954c-0.121-0.286-0.276-0.644-0.425-0.956l-3.776-8.148l-0.066-0.145h-0.16h-0.777h-0.23
					l-0.019,0.23l-1.039,12.969l-0.021,0.27h0.271h0.797h0.23l0.019-0.23l0.797-9.893c0.015-0.163,0.024-0.358,0.032-0.559
					c0.092,0.23,0.186,0.459,0.269,0.643l3.464,7.393l0.067,0.145h0.159h0.816h0.158l0.068-0.144l3.482-7.391
					c0.082-0.175,0.169-0.382,0.252-0.593c0.008,0.182,0.019,0.357,0.032,0.509l0.797,9.89l0.019,0.23h0.23h0.795h0.271l-0.021-0.27
					l-1.037-12.969L185.587,151.832L185.587,151.832z"/>
			</g>
			<g>
				<path fill="#6D5E46" d="M199.38,165.396c-3.685,0-6.682-3.106-6.682-6.924c0.004-3.778,2.938-6.738,6.682-6.738
					c3.749,0,6.686,2.96,6.686,6.738C206.066,162.355,203.129,165.396,199.38,165.396z M199.38,152.744
					c-3.139,0-5.598,2.517-5.598,5.729c0.004,3.316,2.463,5.914,5.598,5.914c3.141,0,5.602-2.598,5.602-5.914
					C204.982,155.261,202.521,152.744,199.38,152.744z"/>
				<path fill="#6D5E46" d="M199.38,151.859c3.613,0,6.561,2.891,6.561,6.613c0,3.816-2.943,6.799-6.561,6.799
					c-3.609,0-6.557-2.982-6.557-6.799C192.827,154.75,195.771,151.859,199.38,151.859 M199.38,164.512
					c3.168,0,5.727-2.631,5.727-6.039c0-3.314-2.559-5.854-5.727-5.854s-5.723,2.535-5.723,5.854
					C193.661,161.881,196.212,164.512,199.38,164.512 M199.38,151.609c-3.812,0-6.803,3.015-6.807,6.863
					c0,3.887,3.054,7.049,6.807,7.049c3.819,0,6.811-3.096,6.811-7.049C206.191,154.624,203.199,151.609,199.38,151.609
					L199.38,151.609z M199.38,164.262c-3.064,0-5.469-2.543-5.473-5.789c0-3.143,2.404-5.604,5.473-5.604
					c3.071,0,5.477,2.461,5.477,5.604C204.857,161.719,202.451,164.262,199.38,164.262L199.38,164.262z"/>
			</g>
			<g>
				<rect x="212.615" y="151.957" fill="#6D5E46" width="1.047" height="13.219"/>
				<path fill="#6D5E46" d="M213.536,152.082v12.969h-0.797v-12.969H213.536 M213.786,151.832h-0.25h-0.797h-0.25v0.25v12.969v0.25
					h0.25h0.797h0.25v-0.25v-12.969V151.832L213.786,151.832z"/>
			</g>
			<g>
				<path fill="#6D5E46" d="M230.367,165.176l-7.429-10.224c-0.264-0.365-0.606-0.902-0.831-1.261
					c0.027,0.345,0.058,0.82,0.058,1.188v10.297h-1.049v-13.219h0.929l7.433,10.222c0.263,0.367,0.605,0.905,0.829,1.264
					c-0.026-0.345-0.056-0.821-0.056-1.19v-10.295h1.047v13.219H230.367z"/>
				<path fill="#6D5E46" d="M231.173,152.082v12.969h-0.742l-7.391-10.172c-0.428-0.592-1.059-1.629-1.059-1.629h-0.037
					c0,0,0.096,0.98,0.096,1.629v10.172h-0.799v-12.969h0.74l7.395,10.17c0.426,0.594,1.055,1.631,1.055,1.631h0.037
					c0,0-0.092-0.98-0.092-1.631v-10.17H231.173 M231.423,151.832h-0.25h-0.797h-0.25v0.25v10.17c0,0.217,0.01,0.468,0.023,0.707
					c-0.186-0.29-0.395-0.607-0.57-0.853l-7.396-10.171l-0.075-0.104h-0.127h-0.74h-0.25v0.25v12.969v0.25h0.25h0.799h0.25v-0.25
					v-10.172c0-0.216-0.01-0.465-0.023-0.703c0.186,0.289,0.395,0.605,0.57,0.85l7.392,10.172l0.075,0.104h0.127h0.742h0.25v-0.25
					v-12.969V151.832L231.423,151.832z"/>
			</g>
			<g>
				<polygon fill="#6D5E46" points="238.751,165.174 238.751,151.957 246.097,151.957 246.097,152.949 239.796,152.949 
					239.796,158.014 244.968,158.014 244.968,159.004 239.796,159.004 239.796,164.182 246.447,164.182 246.447,165.174 				"/>
				<path fill="#6D5E46" d="M245.972,152.082v0.742h-6.301v5.314h5.172v0.74h-5.172v5.428h6.65v0.742h-7.445v-12.967H245.972
					 M246.222,151.832h-0.25h-7.096h-0.25v0.25v12.967v0.25h0.25h7.445h0.25v-0.25v-0.742v-0.25h-0.25h-6.4v-4.928h4.922h0.25v-0.25
					v-0.74v-0.25h-0.25h-4.922v-4.814h6.051h0.25v-0.25v-0.742V151.832L246.222,151.832z"/>
			</g>
		</g>
	</g>
</g>
</svg>
