<?xml version="1.0" encoding="utf-8"?>
<!-- Generator: Adobe Illustrator 16.0.0, SVG Export Plug-In . SVG Version: 6.00 Build 0)  -->
<!DOCTYPE svg PUBLIC "-//W3C//DTD SVG 1.1//EN" "http://www.w3.org/Graphics/SVG/1.1/DTD/svg11.dtd">
<svg version="1.1" id="Layer_1" xmlns="http://www.w3.org/2000/svg" xmlns:xlink="http://www.w3.org/1999/xlink" x="0px" y="0px"
	 width="48.681px" height="48.68px" viewBox="0 0 48.681 48.68" enable-background="new 0 0 48.681 48.68" xml:space="preserve">
<g>
	<defs>
		<rect id="SVGID_1_" width="48.68" height="48.68"/>
	</defs>
	<clipPath id="SVGID_2_">
		<use xlink:href="#SVGID_1_"  overflow="visible"/>
	</clipPath>
	<path clip-path="url(#SVGID_2_)" fill="#A7C84B" d="M24.34,48.679c13.443,0,24.341-10.896,24.341-24.339
		C48.681,10.896,37.783,0,24.34,0C10.897,0,0,10.896,0,24.34C0,37.783,10.897,48.679,24.34,48.679"/>
</g>
<path fill="#FFFFFF" d="M13.078,20.865v14.021h6.734h9.06h6.732V20.863l-11.263-8.192L13.078,20.865z M27.719,36.057h-6.754h-9.04
	V20.258l12.417-9.032l12.175,8.858l-0.335,0.478l0.335-0.478l0.241,0.174v15.799H27.719z"/>
<rect x="17.791" y="26.028" fill="none" stroke="#FFFFFF" width="5.198" height="9.084"/>
<rect x="26.758" y="26.029" fill="none" stroke="#FFFFFF" width="3.923" height="3.23"/>
</svg>
