<?xml version="1.0" encoding="utf-8"?>
<!-- Generator: Adobe Illustrator 16.0.0, SVG Export Plug-In . SVG Version: 6.00 Build 0)  -->
<!DOCTYPE svg PUBLIC "-//W3C//DTD SVG 1.1//EN" "http://www.w3.org/Graphics/SVG/1.1/DTD/svg11.dtd">
<svg version="1.1" id="Layer_1" xmlns="http://www.w3.org/2000/svg" xmlns:xlink="http://www.w3.org/1999/xlink" x="0px" y="0px"
	 width="48.681px" height="48.68px" viewBox="0 0 48.681 48.68" enable-background="new 0 0 48.681 48.68" xml:space="preserve">
<g>
	<defs>
		<rect id="SVGID_1_" width="48.68" height="48.68"/>
	</defs>
	<clipPath id="SVGID_2_">
		<use xlink:href="#SVGID_1_"  overflow="visible"/>
	</clipPath>
	<path clip-path="url(#SVGID_2_)" fill="#A7C84B" d="M24.34,48.679c13.443,0,24.341-10.896,24.341-24.339
		C48.681,10.896,37.783,0,24.34,0C10.897,0,0,10.896,0,24.34C0,37.783,10.897,48.679,24.34,48.679"/>
</g>
<path fill="#FFFFFF" d="M12.932,15.322h22.817v14.455H12.932V15.322z M12.138,30.57h9.412l-2.745,7.168l0.742,0.283L22.4,30.57
	h1.502l-0.04,7.307l0.793,0.004l0.039-7.311h1.587l2.854,7.451l0.742-0.283l-2.745-7.168h9.411V14.528h-11.75l0.026-3.863
	l-0.794-0.005l-0.027,3.868H12.138V30.57z"/>
<path fill="#FFFFFF" d="M27.253,17.516h1.722v10.066h-1.722v-8.77V17.516z M26.459,27.582h-1.722v-7.031v-0.945h1.722V27.582z
	 M23.943,27.582h-1.722v-5.409v-0.828h1.722V27.582z M21.428,27.582h-1.722v-4.615h1.722V27.582z M26.459,18.812h-2.516v1.739
	h-2.515v1.622h-2.516v6.203h2.516h0.793h1.722h0.794h1.722h0.794h2.516V16.722h-3.31V18.812z"/>
</svg>
