<?xml version="1.0" encoding="utf-8"?>
<!-- Generator: Adobe Illustrator 16.0.0, SVG Export Plug-In . SVG Version: 6.00 Build 0)  -->
<!DOCTYPE svg PUBLIC "-//W3C//DTD SVG 1.1//EN" "http://www.w3.org/Graphics/SVG/1.1/DTD/svg11.dtd">
<svg version="1.1" id="Layer_1" xmlns="http://www.w3.org/2000/svg" xmlns:xlink="http://www.w3.org/1999/xlink" x="0px" y="0px"
	 width="48.681px" height="48.68px" viewBox="0 0 48.681 48.68" enable-background="new 0 0 48.681 48.68" xml:space="preserve">
<g>
	<defs>
		<rect id="SVGID_1_" width="48.68" height="48.68"/>
	</defs>
	<clipPath id="SVGID_2_">
		<use xlink:href="#SVGID_1_"  overflow="visible"/>
	</clipPath>
	<path clip-path="url(#SVGID_2_)" fill="#A7C84B" d="M24.34,48.679c13.443,0,24.341-10.896,24.341-24.339
		C48.681,10.896,37.783,0,24.34,0C10.897,0,0,10.896,0,24.34C0,37.783,10.897,48.679,24.34,48.679"/>
</g>
<rect x="23.125" y="18.445" fill="#FFFFFF" width="3.098" height="0.858"/>
<g>
	<defs>
		<rect id="SVGID_3_" width="48.68" height="48.68"/>
	</defs>
	<clipPath id="SVGID_4_">
		<use xlink:href="#SVGID_3_"  overflow="visible"/>
	</clipPath>
	<path clip-path="url(#SVGID_4_)" fill="#FFFFFF" d="M38.167,21.786c-0.896-0.196-1.437-0.55-1.469-0.976
		c-0.027-0.369,0.307-0.726,0.637-0.828c0.065-0.021,0.126-0.031,0.184-0.031c0.176,0,0.316,0.095,0.43,0.286
		C38.171,20.618,38.293,21.197,38.167,21.786 M31.256,31.766l-0.279,0.196l1.43,3.459H28.98l-0.867-2.095l-0.368,0.107
		c-2.188,0.636-4.616,0.696-6.872,0.166l-0.355-0.084l-0.787,1.905h-3.427l1.11-2.684l0.324-0.324l-0.462-0.285
		c-1.891-1.166-3.279-2.817-3.905-4.649l-0.099-0.29h-1.781v-3.758h1.695l0.091-0.307c0.425-1.433,1.303-2.77,2.542-3.866
		l0.269-0.239L15.9,18.712c-1.212-1.971-1.614-3.373-1.746-4.038c0.799,0.067,2.32,0.521,3.398,2.827l0.187,0.401l0.394-0.199
		c1.755-0.885,3.781-1.353,5.858-1.353c6.072,0,11.012,3.95,11.012,8.806C35.003,27.682,33.637,30.09,31.256,31.766 M40.013,20.06
		c0.057,0.6-0.093,1.071-0.44,1.399c-0.164,0.154-0.354,0.258-0.533,0.321c0.106-0.685-0.012-1.396-0.352-1.976
		c-0.349-0.595-0.965-0.841-1.607-0.641c-0.655,0.204-1.296,0.899-1.236,1.71c0.035,0.487,0.353,1.312,1.976,1.712
		c-0.416,0.595-1.131,0.978-2.093,1.124c-0.86-4.644-5.795-8.216-11.735-8.216c-2.059,0-4.074,0.433-5.856,1.257
		c-1.402-2.648-3.399-2.944-4.219-2.944c-0.202,0-0.318,0.019-0.318,0.019l-0.375,0.06l0.01,0.376
		c0.002,0.072,0.068,1.748,1.754,4.597c-1.136,1.076-1.97,2.349-2.434,3.716h-1.92v5.472h2.031c0.694,1.803,2.047,3.422,3.853,4.616
		l-1.495,3.617h5.282l0.73-1.765c2.169,0.451,4.47,0.395,6.579-0.155l0.794,1.92h5.281l-1.66-4.014
		c2.439-1.828,3.832-4.402,3.832-7.109c0-0.204-0.012-0.405-0.026-0.605c1.717-0.255,2.524-1.106,2.893-1.811
		c0.005-0.01,0.01-0.019,0.015-0.029c0.437-0.031,0.985-0.22,1.418-0.627c0.379-0.357,0.809-1.011,0.707-2.103L40.013,20.06z"/>
</g>
<rect x="16.16" y="21.676" fill="#FFFFFF" width="0.858" height="1.292"/>
</svg>
